<?xml version="1.0" encoding="utf-8"?>
<!-- Svg Vector Icons : http://www.onlinewebfonts.com/icon -->
<!DOCTYPE svg PUBLIC "-//W3C//DTD SVG 1.1//EN" "http://www.w3.org/Graphics/SVG/1.1/DTD/svg11.dtd">
<svg version="1.1" xmlns="http://www.w3.org/2000/svg" xmlns:xlink="http://www.w3.org/1999/xlink" x="0px" y="0px" viewBox="0 0 1000 1000" enable-background="new 0 0 1000 1000" xml:space="preserve">
<metadata> Svg Vector Icons : http://www.onlinewebfonts.com/icon </metadata>
<g><path d="M308.9,589.9l107.2,107.2c8.4,8.4,19.4,12.6,30.3,12.6c11,0,21.9-4.2,30.3-12.6l214.4-214.4c16.7-16.7,16.7-43.9,0-60.6c-16.7-16.8-43.9-16.8-60.6,0L446.5,606.2l-76.9-76.9c-16.8-16.7-43.9-16.7-60.7,0C292.2,546,292.2,573.2,308.9,589.9z M886.4,79.1H698.8c6.9,9.9,10.9,21.8,10.9,34.8c0,12.9-4,24.9-10.9,34.8h152.8v771.8H148.3V148.7h151.8c-6.9-9.9-10.9-21.8-10.9-34.8c0-12.9,4-24.9,10.9-34.8H113.6c-19.2,0-34.8,15.6-34.8,34.8v841.3c0,19.2,15.6,34.8,34.8,34.8h772.8c19.2,0,34.8-15.6,34.8-34.8V113.9C921.2,94.7,905.6,79.1,886.4,79.1z M426.4,219.7h144.6c37.2,0,67.3-30.1,67.3-67.3v-6c0-37.2-30.1-67.3-67.3-67.3h-2.8c2.3-5.8,3.6-12.1,3.6-18.7c0-27.9-22.6-50.5-50.5-50.5h-42.6c-27.9,0-50.5,22.6-50.5,50.5c0,6.6,1.3,12.9,3.6,18.7h-5.5c-37.2,0-67.3,30.1-67.3,67.3v6C359.1,189.6,389.3,219.7,426.4,219.7z"/></g>
</svg>